<mxfile host="65bd71144e">
    <diagram id="HX4zkVU71nNc8GLWyfUg" name="第 1 页">
        <mxGraphModel dx="446" dy="563" grid="1" gridSize="10" guides="1" tooltips="1" connect="1" arrows="1" fold="1" page="1" pageScale="1" pageWidth="827" pageHeight="1169" math="0" shadow="0">
            <root>
                <mxCell id="0"/>
                <mxCell id="1" parent="0"/>
                <mxCell id="2" value="i" style="rounded=0;whiteSpace=wrap;html=1;fontSize=18;" parent="1" vertex="1">
                    <mxGeometry x="234" y="150" width="40" height="40" as="geometry"/>
                </mxCell>
                <mxCell id="11" value="g" style="rounded=0;whiteSpace=wrap;html=1;fontSize=18;" parent="1" vertex="1">
                    <mxGeometry x="274" y="150" width="40" height="40" as="geometry"/>
                </mxCell>
                <mxCell id="12" value="e" style="rounded=0;whiteSpace=wrap;html=1;fontSize=18;" parent="1" vertex="1">
                    <mxGeometry x="554" y="150" width="40" height="40" as="geometry"/>
                </mxCell>
                <mxCell id="13" value="d" style="rounded=0;whiteSpace=wrap;html=1;fontSize=18;" parent="1" vertex="1">
                    <mxGeometry x="514" y="150" width="40" height="40" as="geometry"/>
                </mxCell>
                <mxCell id="14" value="f" style="rounded=0;whiteSpace=wrap;html=1;fontSize=18;" parent="1" vertex="1">
                    <mxGeometry x="474" y="150" width="40" height="40" as="geometry"/>
                </mxCell>
                <mxCell id="15" value="h" style="rounded=0;whiteSpace=wrap;html=1;fontSize=18;" parent="1" vertex="1">
                    <mxGeometry x="314" y="150" width="40" height="40" as="geometry"/>
                </mxCell>
                <mxCell id="16" value="c" style="rounded=0;whiteSpace=wrap;html=1;fontSize=18;" parent="1" vertex="1">
                    <mxGeometry x="354" y="150" width="40" height="40" as="geometry"/>
                </mxCell>
                <mxCell id="17" value="a" style="rounded=0;whiteSpace=wrap;html=1;fontSize=18;" parent="1" vertex="1">
                    <mxGeometry x="394" y="150" width="40" height="40" as="geometry"/>
                </mxCell>
                <mxCell id="18" value="b" style="rounded=0;whiteSpace=wrap;html=1;fontSize=18;" parent="1" vertex="1">
                    <mxGeometry x="434" y="150" width="40" height="40" as="geometry"/>
                </mxCell>
                <mxCell id="22" value="c" style="rounded=0;whiteSpace=wrap;html=1;fontSize=18;" parent="1" vertex="1">
                    <mxGeometry x="234" y="190" width="40" height="40" as="geometry"/>
                </mxCell>
                <mxCell id="23" value="a" style="rounded=0;whiteSpace=wrap;html=1;fontSize=18;" parent="1" vertex="1">
                    <mxGeometry x="274" y="190" width="40" height="40" as="geometry"/>
                </mxCell>
                <mxCell id="24" value="h" style="rounded=0;whiteSpace=wrap;html=1;fontSize=18;" parent="1" vertex="1">
                    <mxGeometry x="554" y="190" width="40" height="40" as="geometry"/>
                </mxCell>
                <mxCell id="25" value="g" style="rounded=0;whiteSpace=wrap;html=1;fontSize=18;" parent="1" vertex="1">
                    <mxGeometry x="514" y="190" width="40" height="40" as="geometry"/>
                </mxCell>
                <mxCell id="26" value="i" style="rounded=0;whiteSpace=wrap;html=1;fontSize=18;" parent="1" vertex="1">
                    <mxGeometry x="474" y="190" width="40" height="40" as="geometry"/>
                </mxCell>
                <mxCell id="27" value="b" style="rounded=0;whiteSpace=wrap;html=1;fontSize=18;" parent="1" vertex="1">
                    <mxGeometry x="314" y="190" width="40" height="40" as="geometry"/>
                </mxCell>
                <mxCell id="28" value="f" style="rounded=0;whiteSpace=wrap;html=1;fontSize=18;" parent="1" vertex="1">
                    <mxGeometry x="354" y="190" width="40" height="40" as="geometry"/>
                </mxCell>
                <mxCell id="29" value="d" style="rounded=0;whiteSpace=wrap;html=1;fontSize=18;" parent="1" vertex="1">
                    <mxGeometry x="394" y="190" width="40" height="40" as="geometry"/>
                </mxCell>
                <mxCell id="30" value="e" style="rounded=0;whiteSpace=wrap;html=1;fontSize=18;" parent="1" vertex="1">
                    <mxGeometry x="434" y="190" width="40" height="40" as="geometry"/>
                </mxCell>
                <mxCell id="31" value="f" style="rounded=0;whiteSpace=wrap;html=1;fontSize=18;" parent="1" vertex="1">
                    <mxGeometry x="234" y="230" width="40" height="40" as="geometry"/>
                </mxCell>
                <mxCell id="32" value="d" style="rounded=0;whiteSpace=wrap;html=1;fontSize=18;" parent="1" vertex="1">
                    <mxGeometry x="274" y="230" width="40" height="40" as="geometry"/>
                </mxCell>
                <mxCell id="33" value="b" style="rounded=0;whiteSpace=wrap;html=1;fontSize=18;" parent="1" vertex="1">
                    <mxGeometry x="554" y="230" width="40" height="40" as="geometry"/>
                </mxCell>
                <mxCell id="34" value="a" style="rounded=0;whiteSpace=wrap;html=1;fontSize=18;" parent="1" vertex="1">
                    <mxGeometry x="514" y="230" width="40" height="40" as="geometry"/>
                </mxCell>
                <mxCell id="35" value="c" style="rounded=0;whiteSpace=wrap;html=1;fontSize=18;" parent="1" vertex="1">
                    <mxGeometry x="474" y="230" width="40" height="40" as="geometry"/>
                </mxCell>
                <mxCell id="36" value="e" style="rounded=0;whiteSpace=wrap;html=1;fontSize=18;" parent="1" vertex="1">
                    <mxGeometry x="314" y="230" width="40" height="40" as="geometry"/>
                </mxCell>
                <mxCell id="37" value="i" style="rounded=0;whiteSpace=wrap;html=1;fontSize=18;" parent="1" vertex="1">
                    <mxGeometry x="354" y="230" width="40" height="40" as="geometry"/>
                </mxCell>
                <mxCell id="38" value="g" style="rounded=0;whiteSpace=wrap;html=1;fontSize=18;" parent="1" vertex="1">
                    <mxGeometry x="394" y="230" width="40" height="40" as="geometry"/>
                </mxCell>
                <mxCell id="39" value="h" style="rounded=0;whiteSpace=wrap;html=1;fontSize=18;" parent="1" vertex="1">
                    <mxGeometry x="434" y="230" width="40" height="40" as="geometry"/>
                </mxCell>
                <mxCell id="49" value="g" style="rounded=0;whiteSpace=wrap;html=1;fontSize=18;" parent="1" vertex="1">
                    <mxGeometry x="234" y="270" width="40" height="40" as="geometry"/>
                </mxCell>
                <mxCell id="50" value="h" style="rounded=0;whiteSpace=wrap;html=1;fontSize=18;" parent="1" vertex="1">
                    <mxGeometry x="274" y="270" width="40" height="40" as="geometry"/>
                </mxCell>
                <mxCell id="51" value="f" style="rounded=0;whiteSpace=wrap;html=1;fontSize=18;" parent="1" vertex="1">
                    <mxGeometry x="554" y="270" width="40" height="40" as="geometry"/>
                </mxCell>
                <mxCell id="52" value="e" style="rounded=0;whiteSpace=wrap;html=1;fontSize=18;" parent="1" vertex="1">
                    <mxGeometry x="514" y="270" width="40" height="40" as="geometry"/>
                </mxCell>
                <mxCell id="53" value="d" style="rounded=0;whiteSpace=wrap;html=1;fontSize=18;" parent="1" vertex="1">
                    <mxGeometry x="474" y="270" width="40" height="40" as="geometry"/>
                </mxCell>
                <mxCell id="54" value="i" style="rounded=0;whiteSpace=wrap;html=1;fontSize=18;" parent="1" vertex="1">
                    <mxGeometry x="314" y="270" width="40" height="40" as="geometry"/>
                </mxCell>
                <mxCell id="55" value="&lt;font style=&quot;font-size: 18px;&quot;&gt;a&lt;/font&gt;" style="rounded=0;whiteSpace=wrap;html=1;fontSize=18;" parent="1" vertex="1">
                    <mxGeometry x="354" y="270" width="40" height="40" as="geometry"/>
                </mxCell>
                <mxCell id="56" value="b" style="rounded=0;whiteSpace=wrap;html=1;fontSize=18;" parent="1" vertex="1">
                    <mxGeometry x="394" y="270" width="40" height="40" as="geometry"/>
                </mxCell>
                <mxCell id="57" value="c" style="rounded=0;whiteSpace=wrap;html=1;fontSize=18;" parent="1" vertex="1">
                    <mxGeometry x="434" y="270" width="40" height="40" as="geometry"/>
                </mxCell>
                <mxCell id="58" value="a" style="rounded=0;whiteSpace=wrap;html=1;fontSize=18;" parent="1" vertex="1">
                    <mxGeometry x="234" y="310" width="40" height="40" as="geometry"/>
                </mxCell>
                <mxCell id="59" value="b" style="rounded=0;whiteSpace=wrap;html=1;fontSize=18;" parent="1" vertex="1">
                    <mxGeometry x="274" y="310" width="40" height="40" as="geometry"/>
                </mxCell>
                <mxCell id="60" value="i" style="rounded=0;whiteSpace=wrap;html=1;fontSize=18;" parent="1" vertex="1">
                    <mxGeometry x="554" y="310" width="40" height="40" as="geometry"/>
                </mxCell>
                <mxCell id="61" value="h" style="rounded=0;whiteSpace=wrap;html=1;fontSize=18;" parent="1" vertex="1">
                    <mxGeometry x="514" y="310" width="40" height="40" as="geometry"/>
                </mxCell>
                <mxCell id="62" value="g" style="rounded=0;whiteSpace=wrap;html=1;fontSize=18;" parent="1" vertex="1">
                    <mxGeometry x="474" y="310" width="40" height="40" as="geometry"/>
                </mxCell>
                <mxCell id="63" value="c" style="rounded=0;whiteSpace=wrap;html=1;fontSize=18;" parent="1" vertex="1">
                    <mxGeometry x="314" y="310" width="40" height="40" as="geometry"/>
                </mxCell>
                <mxCell id="64" value="d" style="rounded=0;whiteSpace=wrap;html=1;fontSize=18;" parent="1" vertex="1">
                    <mxGeometry x="354" y="310" width="40" height="40" as="geometry"/>
                </mxCell>
                <mxCell id="65" value="e" style="rounded=0;whiteSpace=wrap;html=1;fontSize=18;" parent="1" vertex="1">
                    <mxGeometry x="394" y="310" width="40" height="40" as="geometry"/>
                </mxCell>
                <mxCell id="66" value="f" style="rounded=0;whiteSpace=wrap;html=1;fontSize=18;" parent="1" vertex="1">
                    <mxGeometry x="434" y="310" width="40" height="40" as="geometry"/>
                </mxCell>
                <mxCell id="67" value="d" style="rounded=0;whiteSpace=wrap;html=1;fontSize=18;" parent="1" vertex="1">
                    <mxGeometry x="234" y="350" width="40" height="40" as="geometry"/>
                </mxCell>
                <mxCell id="68" value="e" style="rounded=0;whiteSpace=wrap;html=1;fontSize=18;" parent="1" vertex="1">
                    <mxGeometry x="274" y="350" width="40" height="40" as="geometry"/>
                </mxCell>
                <mxCell id="69" value="c" style="rounded=0;whiteSpace=wrap;html=1;fontSize=18;" parent="1" vertex="1">
                    <mxGeometry x="554" y="350" width="40" height="40" as="geometry"/>
                </mxCell>
                <mxCell id="70" value="b" style="rounded=0;whiteSpace=wrap;html=1;fontSize=18;" parent="1" vertex="1">
                    <mxGeometry x="514" y="350" width="40" height="40" as="geometry"/>
                </mxCell>
                <mxCell id="71" value="a" style="rounded=0;whiteSpace=wrap;html=1;fontSize=18;" parent="1" vertex="1">
                    <mxGeometry x="474" y="350" width="40" height="40" as="geometry"/>
                </mxCell>
                <mxCell id="72" value="f" style="rounded=0;whiteSpace=wrap;html=1;fontSize=18;" parent="1" vertex="1">
                    <mxGeometry x="314" y="350" width="40" height="40" as="geometry"/>
                </mxCell>
                <mxCell id="73" value="g" style="rounded=0;whiteSpace=wrap;html=1;fontSize=18;" parent="1" vertex="1">
                    <mxGeometry x="354" y="350" width="40" height="40" as="geometry"/>
                </mxCell>
                <mxCell id="74" value="h" style="rounded=0;whiteSpace=wrap;html=1;fontSize=18;" parent="1" vertex="1">
                    <mxGeometry x="394" y="350" width="40" height="40" as="geometry"/>
                </mxCell>
                <mxCell id="75" value="i" style="rounded=0;whiteSpace=wrap;html=1;fontSize=18;" parent="1" vertex="1">
                    <mxGeometry x="434" y="350" width="40" height="40" as="geometry"/>
                </mxCell>
                <mxCell id="76" value="h" style="rounded=0;whiteSpace=wrap;html=1;fontSize=18;" parent="1" vertex="1">
                    <mxGeometry x="234" y="390" width="40" height="40" as="geometry"/>
                </mxCell>
                <mxCell id="77" value="i" style="rounded=0;whiteSpace=wrap;html=1;fontSize=18;" parent="1" vertex="1">
                    <mxGeometry x="274" y="390" width="40" height="40" as="geometry"/>
                </mxCell>
                <mxCell id="78" value="d" style="rounded=0;whiteSpace=wrap;html=1;fontSize=18;" parent="1" vertex="1">
                    <mxGeometry x="554" y="390" width="40" height="40" as="geometry"/>
                </mxCell>
                <mxCell id="79" value="f" style="rounded=0;whiteSpace=wrap;html=1;fontSize=18;" parent="1" vertex="1">
                    <mxGeometry x="514" y="390" width="40" height="40" as="geometry"/>
                </mxCell>
                <mxCell id="80" value="e" style="rounded=0;whiteSpace=wrap;html=1;fontSize=18;" parent="1" vertex="1">
                    <mxGeometry x="474" y="390" width="40" height="40" as="geometry"/>
                </mxCell>
                <mxCell id="81" value="g" style="rounded=0;whiteSpace=wrap;html=1;fontSize=18;" parent="1" vertex="1">
                    <mxGeometry x="314" y="390" width="40" height="40" as="geometry"/>
                </mxCell>
                <mxCell id="82" value="b" style="rounded=0;whiteSpace=wrap;html=1;fontSize=18;" parent="1" vertex="1">
                    <mxGeometry x="354" y="390" width="40" height="40" as="geometry"/>
                </mxCell>
                <mxCell id="83" value="c" style="rounded=0;whiteSpace=wrap;html=1;fontSize=18;" parent="1" vertex="1">
                    <mxGeometry x="394" y="390" width="40" height="40" as="geometry"/>
                </mxCell>
                <mxCell id="84" value="a" style="rounded=0;whiteSpace=wrap;html=1;fontSize=18;" parent="1" vertex="1">
                    <mxGeometry x="434" y="390" width="40" height="40" as="geometry"/>
                </mxCell>
                <mxCell id="85" value="b" style="rounded=0;whiteSpace=wrap;html=1;fontSize=18;" parent="1" vertex="1">
                    <mxGeometry x="234" y="430" width="40" height="40" as="geometry"/>
                </mxCell>
                <mxCell id="86" value="c" style="rounded=0;whiteSpace=wrap;html=1;fontSize=18;" parent="1" vertex="1">
                    <mxGeometry x="274" y="430" width="40" height="40" as="geometry"/>
                </mxCell>
                <mxCell id="87" value="g" style="rounded=0;whiteSpace=wrap;html=1;fontSize=18;" parent="1" vertex="1">
                    <mxGeometry x="554" y="430" width="40" height="40" as="geometry"/>
                </mxCell>
                <mxCell id="88" value="i" style="rounded=0;whiteSpace=wrap;html=1;fontSize=18;" parent="1" vertex="1">
                    <mxGeometry x="514" y="430" width="40" height="40" as="geometry"/>
                </mxCell>
                <mxCell id="89" value="h" style="rounded=0;whiteSpace=wrap;html=1;fontSize=18;" parent="1" vertex="1">
                    <mxGeometry x="474" y="430" width="40" height="40" as="geometry"/>
                </mxCell>
                <mxCell id="90" value="a" style="rounded=0;whiteSpace=wrap;html=1;fontSize=18;" parent="1" vertex="1">
                    <mxGeometry x="314" y="430" width="40" height="40" as="geometry"/>
                </mxCell>
                <mxCell id="91" value="e" style="rounded=0;whiteSpace=wrap;html=1;fontSize=18;" parent="1" vertex="1">
                    <mxGeometry x="354" y="430" width="40" height="40" as="geometry"/>
                </mxCell>
                <mxCell id="92" value="f" style="rounded=0;whiteSpace=wrap;html=1;fontSize=18;" parent="1" vertex="1">
                    <mxGeometry x="394" y="430" width="40" height="40" as="geometry"/>
                </mxCell>
                <mxCell id="93" value="d" style="rounded=0;whiteSpace=wrap;html=1;fontSize=18;" parent="1" vertex="1">
                    <mxGeometry x="434" y="430" width="40" height="40" as="geometry"/>
                </mxCell>
                <mxCell id="94" value="e" style="rounded=0;whiteSpace=wrap;html=1;fontSize=18;" parent="1" vertex="1">
                    <mxGeometry x="234" y="470" width="40" height="40" as="geometry"/>
                </mxCell>
                <mxCell id="95" value="f" style="rounded=0;whiteSpace=wrap;html=1;fontSize=18;" parent="1" vertex="1">
                    <mxGeometry x="274" y="470" width="40" height="40" as="geometry"/>
                </mxCell>
                <mxCell id="96" value="a" style="rounded=0;whiteSpace=wrap;html=1;fontSize=18;" parent="1" vertex="1">
                    <mxGeometry x="554" y="470" width="40" height="40" as="geometry"/>
                </mxCell>
                <mxCell id="97" value="c" style="rounded=0;whiteSpace=wrap;html=1;fontSize=18;" parent="1" vertex="1">
                    <mxGeometry x="514" y="470" width="40" height="40" as="geometry"/>
                </mxCell>
                <mxCell id="98" value="b" style="rounded=0;whiteSpace=wrap;html=1;fontSize=18;" parent="1" vertex="1">
                    <mxGeometry x="474" y="470" width="40" height="40" as="geometry"/>
                </mxCell>
                <mxCell id="99" value="d" style="rounded=0;whiteSpace=wrap;html=1;fontSize=18;" parent="1" vertex="1">
                    <mxGeometry x="314" y="470" width="40" height="40" as="geometry"/>
                </mxCell>
                <mxCell id="100" value="h" style="rounded=0;whiteSpace=wrap;html=1;fontSize=18;" parent="1" vertex="1">
                    <mxGeometry x="354" y="470" width="40" height="40" as="geometry"/>
                </mxCell>
                <mxCell id="101" value="i" style="rounded=0;whiteSpace=wrap;html=1;fontSize=18;" parent="1" vertex="1">
                    <mxGeometry x="394" y="470" width="40" height="40" as="geometry"/>
                </mxCell>
                <mxCell id="102" value="g" style="rounded=0;whiteSpace=wrap;html=1;fontSize=18;" parent="1" vertex="1">
                    <mxGeometry x="434" y="470" width="40" height="40" as="geometry"/>
                </mxCell>
                <mxCell id="103" value="" style="endArrow=none;html=1;fontSize=18;exitX=0;exitY=1;exitDx=0;exitDy=0;entryX=1;entryY=0;entryDx=0;entryDy=0;strokeWidth=3;" parent="1" source="100" target="15" edge="1">
                    <mxGeometry width="50" height="50" relative="1" as="geometry">
                        <mxPoint x="380" y="410" as="sourcePoint"/>
                        <mxPoint x="430" y="360" as="targetPoint"/>
                    </mxGeometry>
                </mxCell>
                <mxCell id="104" value="" style="endArrow=none;html=1;fontSize=18;exitX=0;exitY=1;exitDx=0;exitDy=0;entryX=1;entryY=0;entryDx=0;entryDy=0;strokeWidth=3;" parent="1" edge="1">
                    <mxGeometry width="50" height="50" relative="1" as="geometry">
                        <mxPoint x="473" y="510" as="sourcePoint"/>
                        <mxPoint x="473" y="150" as="targetPoint"/>
                    </mxGeometry>
                </mxCell>
                <mxCell id="105" value="" style="endArrow=none;html=1;fontSize=18;exitX=1;exitY=0;exitDx=0;exitDy=0;entryX=0;entryY=1;entryDx=0;entryDy=0;strokeWidth=3;" parent="1" source="51" target="31" edge="1">
                    <mxGeometry width="50" height="50" relative="1" as="geometry">
                        <mxPoint x="374" y="530" as="sourcePoint"/>
                        <mxPoint x="374" y="170" as="targetPoint"/>
                    </mxGeometry>
                </mxCell>
                <mxCell id="106" value="" style="endArrow=none;html=1;fontSize=18;exitX=1;exitY=0;exitDx=0;exitDy=0;entryX=0;entryY=1;entryDx=0;entryDy=0;strokeWidth=3;" parent="1" edge="1">
                    <mxGeometry width="50" height="50" relative="1" as="geometry">
                        <mxPoint x="594" y="389" as="sourcePoint"/>
                        <mxPoint x="234" y="389" as="targetPoint"/>
                    </mxGeometry>
                </mxCell>
            </root>
        </mxGraphModel>
    </diagram>
</mxfile>